<svg width="27" height="29" viewBox="0 0 27 29" fill="none" xmlns="http://www.w3.org/2000/svg">
<path d="M13.5 0C6.05898 0 0 6.5078 0 14.5C0 22.4922 6.05898 29 13.5 29C20.941 29 27 22.4922 27 14.5C27 6.5078 20.941 0 13.5 0ZM10.3515 1.93661C9.27153 3.09661 8.35627 4.68915 7.68814 6.57661C6.70881 6.18339 5.83932 5.68203 5.12542 5.10203C6.58068 3.6078 8.36542 2.50678 10.3515 1.93661ZM4.18271 6.17356C5.04305 6.89119 6.07729 7.50068 7.24881 7.97254C6.76373 9.7322 6.48 11.6885 6.42508 13.7627H1.40949C1.55593 10.8922 2.57186 8.25763 4.18271 6.17356ZM1.40949 15.2373H6.42508C6.48 17.3017 6.76373 19.2678 7.24881 21.0275C6.07729 21.4993 5.04305 22.1088 4.18271 22.8264C2.56271 20.7424 1.55593 18.1078 1.40949 15.2373ZM5.12542 23.898C5.83932 23.318 6.70881 22.8264 7.68814 22.4234C8.35627 24.3108 9.27153 25.9034 10.3515 27.0634C8.36542 26.4834 6.57153 25.3922 5.12542 23.898ZM12.8136 27.201C11.2393 26.3654 9.90305 24.478 9.0061 21.981C10.1959 21.6369 11.4864 21.4207 12.8136 21.3715V27.201ZM12.8136 19.8871C11.3217 19.9461 9.88475 20.182 8.55763 20.5654C8.11831 18.9434 7.85288 17.1346 7.79797 15.2373H12.8136V19.8871ZM12.8136 13.7627H7.79797C7.85288 11.8556 8.11831 10.0566 8.55763 8.43458C9.87559 8.8278 11.3125 9.06373 12.8136 9.11288V13.7627ZM12.8136 7.6383C11.4773 7.57932 10.1959 7.37288 9.0061 7.02881C9.90305 4.52203 11.2393 2.63458 12.8136 1.80881V7.6383ZM25.5905 13.7627H20.5749C20.52 11.6885 20.2363 9.7322 19.7512 7.97254C20.9227 7.50068 21.9569 6.89119 22.8173 6.17356C24.4281 8.25763 25.4441 10.8824 25.5905 13.7627ZM21.8746 5.10203C21.1607 5.68203 20.2912 6.17356 19.3119 6.57661C18.6437 4.68915 17.7285 3.09661 16.6485 1.93661C18.6346 2.50678 20.4285 3.6078 21.8746 5.10203ZM14.1864 1.80881C15.7607 2.64441 17.0969 4.53186 18.0031 7.02881C16.8132 7.37288 15.5227 7.58915 14.1864 7.6383V1.80881ZM14.1864 9.11288C15.6783 9.0539 17.1153 8.81797 18.4424 8.43458C18.8817 10.0566 19.1471 11.8654 19.202 13.7627H14.1864V9.11288ZM14.1864 15.2373H19.202C19.1471 17.1444 18.8817 18.9434 18.4424 20.5654C17.1244 20.1722 15.6875 19.9363 14.1864 19.8871V15.2373ZM14.1864 27.201V21.3617C15.5227 21.4207 16.8041 21.6271 18.0031 21.9712C17.0969 24.478 15.7607 26.3654 14.1864 27.201ZM16.6485 27.0634C17.7285 25.9034 18.6437 24.3108 19.3119 22.4234C20.2912 22.8166 21.1607 23.318 21.8746 23.898C20.4193 25.3922 18.6346 26.4834 16.6485 27.0634ZM22.8173 22.8264C21.9569 22.1088 20.9227 21.4993 19.7512 21.0275C20.2363 19.2678 20.52 17.3115 20.5749 15.2373H25.5905C25.4441 18.1078 24.4281 20.7424 22.8173 22.8264Z" fill="black"/>
</svg>
