<svg width="22" height="135" viewBox="0 0 22 135" fill="none" xmlns="http://www.w3.org/2000/svg">
<path d="M4.86669 0.358567L4.86669 12.9626L8.31669 12.9626L8.31669 4.42957L11.8357 4.42957L11.8357 11.6286L15.0097 11.6286L15.0097 4.42957L17.9537 4.42957L17.9537 12.8246L21.3117 12.8246L21.3117 0.358567L4.86669 0.358567ZM4.86669 14.5709L4.86669 18.3199L11.3757 18.32C12.8247 18.32 13.8597 19.148 13.8597 20.39C13.8597 21.609 13.0087 22.23 11.7667 22.23L4.86669 22.2299L4.86669 25.979L12.5257 25.979C15.1477 25.979 16.9877 24.461 16.9877 21.885C16.9877 20.252 16.2977 19.125 15.0327 18.251L15.0327 18.182L16.6427 18.182L16.6427 14.571L4.86669 14.5709ZM4.72869 32.1325C4.72869 33.1445 4.82069 33.8575 4.91269 34.1795L7.64969 34.1795C7.64969 34.0415 7.62669 33.6735 7.62669 33.3515C7.62669 32.5465 7.85669 32.0405 8.77669 32.0405L14.2967 32.0405L14.2967 34.1795L16.6427 34.1795L16.6427 32.0405L20.3687 32.0405L20.3687 28.3835L16.6427 28.3835L16.6427 26.8195L14.2967 26.8195L14.2967 28.3835L7.97169 28.3835C5.44169 28.3835 4.72869 29.9475 4.72869 32.1325ZM4.86669 35.527L4.86669 39.276L10.1567 39.276C12.7097 39.276 13.8367 40.748 13.5147 43.048L13.5147 43.14L16.7347 43.14C16.8037 42.979 16.8267 42.749 16.8267 42.404C16.8267 40.978 16.2057 40.012 14.8027 39.184L14.8027 39.115L16.6427 39.115L16.6427 35.527L4.86669 35.527ZM0.979688 44.9473L0.979688 47.3853C0.979687 49.7543 1.94569 50.8813 4.70569 51.8243L16.6427 55.8953L16.6427 52.1463L11.6287 50.6053C10.4787 50.2373 8.91469 49.9153 8.91469 49.9153L8.91469 49.8693C8.91469 49.8693 10.4787 49.5013 11.6287 49.1333L16.6427 47.5463L16.6427 43.5903L7.58069 47.0633C6.33869 47.5463 5.64869 47.7763 5.14269 47.7763C4.33769 47.7763 3.90069 47.3393 3.90069 46.2353L3.90069 44.9473L0.979688 44.9473ZM4.86669 60.2094L4.86669 64.1424L8.73069 64.1424L8.73069 60.2094L4.86669 60.2094ZM11.9967 60.2094L11.9967 64.1424L15.8607 64.1424L15.8607 60.2094L11.9967 60.2094ZM12.6967 79.2223C13.3447 76.5943 14.8567 75.6043 16.2967 75.4783L16.2967 78.5743L18.5467 78.5743L18.5467 75.4603L20.0947 75.4603L20.0947 72.5443L18.5467 72.5443L18.5467 69.4483L16.2967 69.4483L16.2967 72.5263C14.7307 72.4003 13.1107 71.4463 12.4267 68.7823L10.1587 70.1323C10.6627 72.0583 11.7247 73.3183 13.0567 74.0383C11.8507 74.8123 10.9147 76.0543 10.4467 77.9263L12.6967 79.2223ZM7.29669 74.0743L7.29668 79.5643L5.58668 79.5643L5.58669 74.0743L7.29669 74.0743ZM3.33669 71.2123L3.33668 82.4083L9.54668 82.4083L9.54669 71.2123L3.33669 71.2123ZM16.2787 84.5143L16.2787 82.4083L20.0407 82.4083L20.0407 79.4923L10.1947 79.4923L10.1947 82.4083L13.9207 82.4083L13.9207 84.5143L16.2787 84.5143ZM11.5987 94.6289C12.0127 94.6829 12.4087 94.7009 12.8587 94.7009C13.4167 94.7009 13.9747 94.6649 14.4607 94.5749L14.4607 96.9869L11.5987 96.9869L11.5987 94.6289ZM9.36668 90.2549C9.36668 89.2289 10.4647 88.5629 12.8407 88.5629C15.2167 88.5629 16.3147 89.2289 16.3147 90.2549C16.3147 91.2809 15.2167 91.9469 12.8407 91.9469C10.4647 91.9469 9.36668 91.2809 9.36668 90.2549ZM20.0947 96.9869L16.7827 96.9869L16.7827 93.7829C18.1867 92.9909 18.9607 91.7309 18.9607 90.2549C18.9607 87.6989 16.6207 85.8089 12.8407 85.8089C9.06068 85.8089 6.72068 87.6989 6.72068 90.2549C6.73868 91.8569 7.65668 93.2069 9.27668 93.9809L9.27668 96.9869L3.12068 96.9869L3.12068 99.9029L20.0767 99.9029L20.0947 96.9869ZM16.1167 108.613L16.1167 111.745L18.4927 111.745L18.4927 102.385L16.1167 102.385L16.1167 105.679L15.8107 105.679C13.0927 105.679 9.96068 104.671 8.57468 101.701L6.28868 103.321C7.17068 105.229 8.84468 106.489 10.8787 107.191C9.06068 107.947 7.53068 109.153 6.72068 110.989L9.00668 112.573C10.3387 109.621 13.3267 108.613 15.8107 108.613L16.1167 108.613ZM13.8127 117.757L13.8127 115.489L20.0407 115.489L20.0407 112.573L3.15668 112.573L3.15668 115.489L11.4367 115.489L11.4367 117.757L13.8127 117.757ZM16.6927 132.21L16.6927 123.39L17.5747 123.39L17.5747 132.084L19.8427 132.084L19.8427 120.492L14.4427 120.492L14.4427 132.21L16.6927 132.21ZM6.09068 123.264L6.09068 132.174L10.8427 132.174L10.8427 120.366L8.68268 120.366L8.68268 129.294L8.10668 129.294L8.10668 120.384L3.26468 120.384L3.26468 132.588L5.46068 132.588L5.46068 123.264L6.09068 123.264ZM13.7767 118.71L11.5087 118.71L11.5087 134.01L13.7767 134.01L13.7767 118.71Z" fill="black"/>
</svg>
