<svg width="40" height="44" viewBox="0 0 40 44" fill="none" xmlns="http://www.w3.org/2000/svg">
<path d="M19.9397 38.6064C19.9244 38.6064 19.9244 38.6064 19.9397 38.6064V38.6064Z" fill="black" stroke="black" stroke-width="0.5" stroke-miterlimit="10"/>
<path d="M19.9397 38.6064C19.9244 38.6064 19.9244 38.6064 19.9397 38.6064V38.6064Z" fill="black" stroke="black" stroke-width="0.5" stroke-miterlimit="10"/>
<path d="M20.8327 40.2571L20.8022 40.1963C20.8174 40.1963 20.8174 40.2267 20.8327 40.2571Z" fill="black" stroke="black" stroke-width="0.5" stroke-miterlimit="10"/>
<path d="M20.8022 40.1963L20.8327 40.2571C20.8327 40.2419 20.8174 40.2115 20.8022 40.1963Z" fill="black" stroke="black" stroke-width="0.5" stroke-miterlimit="10"/>
<path d="M3.31081 30.9438H3.25C3.2652 30.9438 3.29561 30.9438 3.31081 30.9438Z" fill="black" stroke="black" stroke-width="0.5" stroke-miterlimit="10"/>
<path d="M3.21826 30.9438H3.23346H3.29427C3.27907 30.9438 3.24867 30.9438 3.21826 30.9438Z" fill="black" stroke="black" stroke-width="0.5" stroke-miterlimit="10"/>
<path d="M36.6127 12.98H36.584C36.5984 12.98 36.5984 12.98 36.6127 12.98Z" fill="black" stroke="black" stroke-width="0.5" stroke-miterlimit="10"/>
<path d="M35.6606 11.451C35.6606 11.4358 35.6758 11.4206 35.6911 11.4054C35.6911 11.3902 35.7063 11.3902 35.7063 11.375C35.691 11.4054 35.6606 11.4358 35.6606 11.451Z" fill="black" stroke="black" stroke-width="0.5" stroke-miterlimit="10"/>
<path d="M7.15549 14.147H7.14111L7.16986 14.1757L7.15549 14.147Z" fill="black" stroke="black" stroke-width="0.5" stroke-miterlimit="10"/>
<path d="M7.17062 14.1757L7.15625 14.147L7.17062 14.1757Z" fill="black" stroke="black" stroke-width="0.5" stroke-miterlimit="10"/>
<path d="M16.258 14.1314L21.8315 4.31706C22.0284 3.999 22.1496 3.62036 22.1496 3.21143C22.1647 1.99978 21.1803 1.01532 19.9686 1.00017C18.757 0.985027 17.7574 1.96949 17.7574 3.18114C17.7574 3.59007 17.8634 3.96871 18.0603 4.30192L19.0599 6.19512L19.7263 5.01376L19.075 3.78696C19.0447 3.74153 18.8933 3.4992 18.8933 3.18114C18.8781 2.59046 19.3779 2.12095 19.9686 2.12095C20.5593 2.12095 21.0288 2.60561 21.0288 3.19629C21.0288 3.39318 20.9682 3.57493 20.8774 3.72638C20.8622 3.74153 15.5764 13.0106 15.5764 13.0106L6.86768 13.0258L7.54923 14.1466L16.258 14.1314Z" fill="black" stroke="black" stroke-width="0.5" stroke-miterlimit="10"/>
<path d="M20.1211 8.0578L23.6197 14.1312L32.2982 14.116L32.5405 13.7374L32.9949 12.9801L24.2861 12.9953L20.7724 6.92188L20.1211 8.0578Z" fill="black" stroke="black" stroke-width="0.5" stroke-miterlimit="10"/>
<path d="M19.7737 35.9406L16.2296 29.8369H7.52091L6.8545 30.9577L6.83936 30.9728L15.5784 30.9577L19.1224 37.0765L19.7737 35.9406Z" fill="black" stroke="black" stroke-width="0.5" stroke-miterlimit="10"/>
<path d="M36.6145 12.98C36.6145 12.98 36.5993 12.98 36.5841 12.98H36.5537C36.5689 12.98 36.5841 12.98 36.6145 12.98Z" fill="black" stroke="black" stroke-width="0.5" stroke-miterlimit="10"/>
<path d="M7.17161 14.1767L5.1421 10.8447C4.96036 10.5115 4.68773 10.2237 4.32424 10.0268C3.27919 9.42101 1.93123 9.78451 1.32541 10.8296C0.719585 11.8746 1.08308 13.2226 2.14327 13.8284C2.49162 14.0253 2.88541 14.1161 3.26405 14.1161L5.42987 14.1464L4.73317 13.0105L3.30948 12.9802C3.29434 12.9802 3.26405 12.9802 3.23376 12.9802C3.05201 12.9802 2.87026 12.9348 2.68851 12.8439C2.17356 12.5562 2.00696 11.9049 2.29473 11.3899C2.58249 10.875 3.2489 10.6781 3.74871 10.9962C4.02133 11.1779 4.14249 11.4202 4.18793 11.4657L6.33861 15.0249L10.3825 21.9767L5.11181 30.9429L4.12735 32.4726C4.1122 32.4878 4.09706 32.5181 4.09706 32.5332C4.00618 32.6847 3.86987 32.821 3.70327 32.927C3.18832 33.1996 2.53706 33.0179 2.26444 32.5029C1.99182 31.988 2.17356 31.3216 2.68851 31.0489C2.90055 30.9429 3.11259 30.9278 3.23376 30.9278H3.2489C3.27919 30.9278 3.30948 30.9278 3.30948 30.9278L4.68773 30.9429L5.36929 29.8221L3.26405 29.807C2.88541 29.7919 2.49162 29.8676 2.14327 30.0645C1.08308 30.64 0.689294 31.9728 1.26483 33.033C1.84036 34.0932 3.17317 34.487 4.23337 33.9266C4.59686 33.7297 4.86948 33.4571 5.06638 33.1239L6.44463 30.9732L11.685 21.9919L7.17161 14.1767Z" fill="black" stroke="black" stroke-width="0.5" stroke-miterlimit="10"/>
<path d="M7.16986 14.1757L7.15549 14.147H7.14111L7.16986 14.1757Z" fill="black" stroke="black" stroke-width="0.5" stroke-miterlimit="10"/>
<path d="M19.7737 35.9406L16.2296 29.8369H7.52091L6.8545 30.9577L6.83936 30.9728L15.5784 30.9577L19.1224 37.0765L19.7737 35.9406Z" fill="black" stroke="black" stroke-width="0.5" stroke-miterlimit="10"/>
<path d="M20.1211 8.0578L23.6197 14.1312L32.2982 14.116L32.5405 13.7374L32.9949 12.9801L24.2861 12.9953L20.7724 6.92188L20.1211 8.0578Z" fill="black" stroke="black" stroke-width="0.5" stroke-miterlimit="10"/>
<path d="M16.258 14.1314L21.8315 4.31706C22.0284 3.999 22.1496 3.62036 22.1496 3.21143C22.1647 1.99978 21.1803 1.01532 19.9686 1.00017C18.757 0.985027 17.7574 1.96949 17.7574 3.18114C17.7574 3.59007 17.8634 3.96871 18.0603 4.30192L19.0599 6.19512L19.7263 5.01376L19.075 3.78696C19.0447 3.74153 18.8933 3.4992 18.8933 3.18114C18.8781 2.59046 19.3779 2.12095 19.9686 2.12095C20.5593 2.12095 21.0288 2.60561 21.0288 3.19629C21.0288 3.39318 20.9682 3.57493 20.8774 3.72638C20.8622 3.74153 15.5764 13.0106 15.5764 13.0106L6.86768 13.0258L7.54923 14.1466L16.258 14.1314Z" fill="black" stroke="black" stroke-width="0.5" stroke-miterlimit="10"/>
<path d="M35.6606 11.451C35.6606 11.4358 35.6758 11.4206 35.6911 11.4054C35.6911 11.3902 35.7063 11.3902 35.7063 11.375C35.691 11.4054 35.6606 11.4358 35.6606 11.451Z" fill="black" stroke="black" stroke-width="0.5" stroke-miterlimit="10"/>
<path d="M36.6145 12.98H36.5841H36.5537C36.5689 12.98 36.5841 12.98 36.6145 12.98Z" fill="black" stroke="black" stroke-width="0.5" stroke-miterlimit="10"/>
<path d="M20.8022 40.1963C20.8022 40.2115 20.8174 40.2267 20.8327 40.2571C20.8327 40.2419 20.8174 40.2115 20.8022 40.1963Z" fill="black" stroke="black" stroke-width="0.5" stroke-miterlimit="10"/>
<path d="M7.17161 14.1767L5.1421 10.8447C4.96036 10.5115 4.68773 10.2237 4.32424 10.0268C3.27919 9.42101 1.93123 9.78451 1.32541 10.8296C0.719585 11.8746 1.08308 13.2226 2.14327 13.8284C2.49162 14.0253 2.88541 14.1161 3.26405 14.1161L5.42987 14.1464L4.73317 13.0105L3.30948 12.9802C3.29434 12.9802 3.26405 12.9802 3.23376 12.9802C3.05201 12.9802 2.87026 12.9348 2.68851 12.8439C2.17356 12.5562 2.00696 11.9049 2.29473 11.3899C2.58249 10.875 3.2489 10.6781 3.74871 10.9962C4.02133 11.1779 4.14249 11.4202 4.18793 11.4657L6.33861 15.0249L10.3825 21.9767L5.11181 30.9429L4.12735 32.4726C4.1122 32.4878 4.09706 32.5181 4.09706 32.5332C4.00618 32.6847 3.86987 32.821 3.70327 32.927C3.18832 33.1996 2.53706 33.0179 2.26444 32.5029C1.99182 31.988 2.17356 31.3216 2.68851 31.0489C2.90055 30.9429 3.11259 30.9278 3.23376 30.9278H3.2489C3.27919 30.9278 3.30948 30.9278 3.30948 30.9278L4.68773 30.9429L5.36929 29.8221L3.26405 29.807C2.88541 29.7919 2.49162 29.8676 2.14327 30.0645C1.08308 30.64 0.689294 31.9728 1.26483 33.033C1.84036 34.0932 3.17317 34.487 4.23337 33.9266C4.59686 33.7297 4.86948 33.4571 5.06638 33.1239L6.44463 30.9732L11.685 21.9919L7.17161 14.1767Z" fill="black" stroke="black" stroke-width="0.5" stroke-miterlimit="10"/>
<path d="M7.17161 14.1767L5.1421 10.8447C4.96036 10.5115 4.68773 10.2237 4.32424 10.0268C3.27919 9.42101 1.93123 9.78451 1.32541 10.8296C0.719585 11.8746 1.08308 13.2226 2.14327 13.8284C2.49162 14.0253 2.88541 14.1161 3.26405 14.1161L5.42987 14.1464L4.73317 13.0105L3.30948 12.9802C3.29434 12.9802 3.26405 12.9802 3.23376 12.9802C3.05201 12.9802 2.87026 12.9348 2.68851 12.8439C2.17356 12.5562 2.00696 11.9049 2.29473 11.3899C2.58249 10.875 3.2489 10.6781 3.74871 10.9962C4.02133 11.1779 4.14249 11.4202 4.18793 11.4657L6.33861 15.0249L10.3825 21.9767L5.11181 30.9429L4.12735 32.4726C4.1122 32.4878 4.09706 32.5181 4.09706 32.5332C4.00618 32.6847 3.86987 32.821 3.70327 32.927C3.18832 33.1996 2.53706 33.0179 2.26444 32.5029C1.99182 31.988 2.17356 31.3216 2.68851 31.0489C2.90055 30.9429 3.11259 30.9278 3.23376 30.9278H3.2489C3.27919 30.9278 3.30948 30.9278 3.30948 30.9278L4.68773 30.9429L5.36929 29.8221L3.26405 29.807C2.88541 29.7919 2.49162 29.8676 2.14327 30.0645C1.08308 30.64 0.689294 31.9728 1.26483 33.033C1.84036 34.0932 3.17317 34.487 4.23337 33.9266C4.59686 33.7297 4.86948 33.4571 5.06638 33.1239L6.44463 30.9732L11.685 21.9919L7.17161 14.1767Z" fill="black" stroke="black" stroke-width="0.5" stroke-miterlimit="10"/>
<path d="M7.16986 14.1757L7.15549 14.147H7.14111L7.16986 14.1757Z" fill="black" stroke="black" stroke-width="0.5" stroke-miterlimit="10"/>
<path d="M7.16986 14.1757L7.15549 14.147H7.14111L7.16986 14.1757Z" fill="black" stroke="black" stroke-width="0.5" stroke-miterlimit="10"/>
<path d="M16.258 14.1314L21.8315 4.31706C22.0284 3.999 22.1496 3.62036 22.1496 3.21143C22.1647 1.99978 21.1803 1.01532 19.9686 1.00017C18.757 0.985027 17.7574 1.96949 17.7574 3.18114C17.7574 3.59007 17.8634 3.96871 18.0603 4.30192L19.0599 6.19512L19.7263 5.01376L19.075 3.78696C19.0447 3.74153 18.8933 3.4992 18.8933 3.18114C18.8781 2.59046 19.3779 2.12095 19.9686 2.12095C20.5593 2.12095 21.0288 2.60561 21.0288 3.19629C21.0288 3.39318 20.9682 3.57493 20.8774 3.72638C20.8622 3.74153 15.5764 13.0106 15.5764 13.0106L6.86768 13.0258L7.54923 14.1466L16.258 14.1314Z" fill="black" stroke="black" stroke-width="0.5" stroke-miterlimit="10"/>
<path d="M16.258 14.1314L21.8315 4.31706C22.0284 3.999 22.1496 3.62036 22.1496 3.21143C22.1647 1.99978 21.1803 1.01532 19.9686 1.00017C18.757 0.985027 17.7574 1.96949 17.7574 3.18114C17.7574 3.59007 17.8634 3.96871 18.0603 4.30192L19.0599 6.19512L19.7263 5.01376L19.075 3.78696C19.0447 3.74153 18.8933 3.4992 18.8933 3.18114C18.8781 2.59046 19.3779 2.12095 19.9686 2.12095C20.5593 2.12095 21.0288 2.60561 21.0288 3.19629C21.0288 3.39318 20.9682 3.57493 20.8774 3.72638C20.8622 3.74153 15.5764 13.0106 15.5764 13.0106L6.86768 13.0258L7.54923 14.1466L16.258 14.1314Z" fill="black" stroke="black" stroke-width="0.5" stroke-miterlimit="10"/>
<path d="M35.6606 11.451C35.6606 11.4358 35.6758 11.4206 35.6911 11.4054C35.6911 11.3902 35.7063 11.3902 35.7063 11.375C35.691 11.4054 35.6606 11.4358 35.6606 11.451Z" fill="black" stroke="black" stroke-width="0.5" stroke-miterlimit="10"/>
<path d="M35.6606 11.451C35.6606 11.4358 35.6758 11.4206 35.6911 11.4054C35.6911 11.3902 35.7063 11.3902 35.7063 11.375C35.691 11.4054 35.6606 11.4358 35.6606 11.451Z" fill="black" stroke="black" stroke-width="0.5" stroke-miterlimit="10"/>
<path d="M36.6145 12.98H36.5841H36.5537C36.5689 12.98 36.5841 12.98 36.6145 12.98Z" fill="black" stroke="black" stroke-width="0.5" stroke-miterlimit="10"/>
<path d="M36.6145 12.98H36.5841H36.5537C36.5689 12.98 36.5841 12.98 36.6145 12.98Z" fill="black" stroke="black" stroke-width="0.5" stroke-miterlimit="10"/>
<path d="M20.1211 8.0578L23.6197 14.1312L32.2982 14.116L32.5405 13.7374L32.9949 12.9801L24.2861 12.9953L20.7724 6.92188L20.1211 8.0578Z" fill="black" stroke="black" stroke-width="0.5" stroke-miterlimit="10"/>
<path d="M20.1211 8.0578L23.6197 14.1312L32.2982 14.116L32.5405 13.7374L32.9949 12.9801L24.2861 12.9953L20.7724 6.92188L20.1211 8.0578Z" fill="black" stroke="black" stroke-width="0.5" stroke-miterlimit="10"/>
<path d="M19.7737 35.9406L16.2296 29.8369H7.52091L6.8545 30.9577L6.83936 30.9728L15.5784 30.9577L19.1224 37.0765L19.7737 35.9406Z" fill="black" stroke="black" stroke-width="0.5" stroke-miterlimit="10"/>
<path d="M19.7737 35.9406L16.2296 29.8369H7.52091L6.8545 30.9577L6.83936 30.9728L15.5784 30.9577L19.1224 37.0765L19.7737 35.9406Z" fill="black" stroke="black" stroke-width="0.5" stroke-miterlimit="10"/>
<path d="M32.7056 29.8077L32.7965 29.944L32.6147 29.6411L32.7056 29.8077Z" fill="black" stroke="black" stroke-width="0.5" stroke-miterlimit="10"/>
<path d="M20.8013 40.1968C20.8013 40.212 20.8165 40.2272 20.8317 40.2576C20.8317 40.2424 20.8165 40.212 20.8013 40.1968Z" fill="black" stroke="black" stroke-width="0.5" stroke-miterlimit="10"/>
<path d="M32.494 30.0802L32.3274 29.8076L23.6338 29.8228L18.03 39.6826C17.8331 40.0158 17.7271 40.3944 17.7271 40.8033C17.7271 42.015 18.7115 42.9994 19.9232 42.9994C21.1348 42.9994 22.1193 42.015 22.1193 40.8033C22.1193 40.3944 21.9981 40.0158 21.8164 39.6826L20.7865 37.8045L20.1352 38.9556L20.8016 40.1975C20.8168 40.2127 20.8319 40.2429 20.847 40.2732C20.9076 40.3793 20.9985 40.561 20.9985 40.8185C21.0136 41.4092 20.5138 41.8787 19.9383 41.8787C19.3628 41.8787 18.8781 41.394 18.8781 40.8185C18.8781 40.6216 18.9387 40.4398 19.0296 40.2732C19.0447 40.2581 19.0447 40.2278 19.0599 40.2126L19.9383 38.6224L24.3002 30.9738L33.0544 30.9587L33.009 30.8981L32.494 30.0802Z" fill="black" stroke="black" stroke-width="0.5" stroke-miterlimit="10"/>
<path d="M35.8562 32.367C35.841 32.3518 35.8257 32.3366 35.8105 32.3062L35.8562 32.367Z" fill="black" stroke="black" stroke-width="0.5" stroke-miterlimit="10"/>
<path d="M35.8562 32.367L35.8105 32.3062C35.8257 32.3366 35.841 32.3518 35.8562 32.367Z" fill="black" stroke="black" stroke-width="0.5" stroke-miterlimit="10"/>
<path d="M34.7815 30.8076C34.7662 30.8229 34.7662 30.8229 34.7815 30.8076C34.7815 30.8229 34.7815 30.8076 34.7815 30.8076Z" fill="black" stroke="black" stroke-width="0.5" stroke-miterlimit="10"/>
<path d="M37.7195 30.0346C37.356 29.8377 36.9773 29.7468 36.5987 29.762H36.6593H34.4783L35.1447 30.8827H36.5684C36.629 30.8827 36.9016 30.8676 37.1894 31.0039C37.7195 31.2765 37.8861 31.9429 37.6135 32.4579C37.3408 32.9728 36.6744 33.1546 36.1595 32.882C35.9929 32.7911 35.8566 32.6548 35.7657 32.4882C35.7506 32.473 35.7354 32.4579 35.7354 32.4276L34.7661 30.9282L29.4651 21.9771L33.8119 14.4952L35.6597 11.4661C35.6748 11.4358 35.69 11.4206 35.7051 11.3903C35.7657 11.2843 35.8869 11.1177 36.0989 10.9814C36.5987 10.6785 37.2651 10.8602 37.5529 11.3752C37.8406 11.8901 37.674 12.5414 37.1591 12.8292C36.9925 12.9352 36.7956 12.9655 36.6138 12.9655C36.5987 12.9655 36.5684 12.9655 36.5381 12.9655H36.5684C36.3412 12.9655 35.0993 12.9958 35.0993 12.9958L34.4026 14.1317L36.5836 14.1014C36.9622 14.1014 37.356 14.0105 37.7043 13.8136C38.7494 13.2078 39.1129 11.875 38.5222 10.8148C37.9315 9.75461 36.5836 9.40626 35.5234 10.0121C35.175 10.209 34.9024 10.4967 34.7055 10.8299L31.4189 16.3278L28.1626 21.962L32.6003 29.6256L32.8123 29.9437L32.7972 29.9286L34.7661 33.0637C34.963 33.3818 35.2356 33.6695 35.5991 33.8664C36.6593 34.4571 37.9921 34.0633 38.5828 33.0031C39.1735 31.9581 38.7797 30.6101 37.7195 30.0346Z" fill="black" stroke="black" stroke-width="0.5" stroke-miterlimit="10"/>
<path d="M32.6147 29.6411L32.7965 29.944L32.8116 29.9592L32.6147 29.6411Z" fill="black" stroke="black" stroke-width="0.5" stroke-miterlimit="10"/>
<path d="M7.17209 14.1767L5.14258 10.8447C4.96084 10.5115 4.68821 10.2237 4.32472 10.0268C3.27967 9.42101 1.93171 9.78451 1.32589 10.8296C0.720064 11.8746 1.08356 13.2226 2.14375 13.8284C2.4921 14.0253 2.88589 14.1161 3.26453 14.1161L5.43035 14.1464L4.73365 13.0105L3.30996 12.9802C3.29482 12.9802 3.26453 12.9802 3.23424 12.9802C3.05249 12.9802 2.87074 12.9348 2.68899 12.8439C2.17404 12.5562 2.00744 11.9049 2.29521 11.3899C2.58297 10.875 3.24938 10.6781 3.74919 10.9962C4.02181 11.1779 4.14297 11.4202 4.18841 11.4657L6.33909 15.0249L10.383 21.9767L5.11229 30.9429V30.9581L4.12783 32.4878C4.11268 32.5029 4.09754 32.5332 4.09754 32.5484C4.00666 32.6998 3.87035 32.8361 3.70375 32.9421C3.1888 33.2148 2.53754 33.033 2.26492 32.5181C1.9923 32.0031 2.17404 31.3367 2.68899 31.0641C2.90103 30.9581 3.11307 30.9429 3.23424 30.9429C3.26453 30.9429 3.29482 30.9429 3.30996 30.9429L4.68821 30.9581L5.36977 29.8373L3.27967 29.8221C2.90103 29.807 2.50725 29.8827 2.1589 30.0796C1.0987 30.6552 0.704919 31.988 1.28045 33.0482C1.85598 34.1084 3.1888 34.5021 4.24899 33.9418C4.61249 33.7449 4.88511 33.4722 5.082 33.139L6.46025 30.9884L11.6855 21.9919L7.17209 14.1767ZM5.86957 29.8221H5.83928L6.12705 29.3829L5.86957 29.8221Z" fill="black" stroke="black" stroke-width="0.5" stroke-miterlimit="10"/>
<path d="M5.86965 29.8215L6.12712 29.3823L5.83936 29.8215H5.86965Z" fill="black" stroke="black" stroke-width="0.5" stroke-miterlimit="10"/>
<path d="M5.11133 30.9438V30.9584V30.9438Z" fill="black" stroke="black" stroke-width="0.5" stroke-miterlimit="10"/>
<path d="M16.5316 20.3858C16.0166 20.3858 15.638 20.1132 15.3805 19.5225L15.3351 19.4165L14.3203 19.7043L14.3657 19.8406C14.5626 20.3707 14.8656 20.7796 15.2442 21.0522C15.6228 21.3249 16.0621 21.4612 16.5619 21.4612C17.0768 21.4612 17.516 21.2794 17.8795 20.9311C18.243 20.5827 18.4248 20.1435 18.4248 19.6588C18.4248 19.4468 18.3945 19.2348 18.3188 19.053C18.2582 18.8561 18.1522 18.6744 18.0158 18.5078C17.8795 18.3412 17.6978 18.1746 17.5009 18.0383C17.304 17.9019 17.0162 17.7505 16.6376 17.599C16.2892 17.4476 16.0469 17.3113 15.9106 17.1901C15.7894 17.0841 15.7289 16.9781 15.7289 16.8418C15.7289 16.6903 15.7894 16.5691 15.9257 16.4783C16.0772 16.3722 16.259 16.3117 16.5013 16.3117C16.7285 16.3117 16.8951 16.3419 17.0011 16.4177C17.1222 16.4934 17.2586 16.6146 17.41 16.766L17.5009 16.8569L18.3188 16.2056L18.243 16.0996C18.0158 15.8119 17.7432 15.5998 17.41 15.4635C17.0768 15.3272 16.7588 15.2515 16.4407 15.2515C15.956 15.2515 15.532 15.4029 15.1836 15.7058C14.8353 16.0087 14.6535 16.3874 14.6535 16.8266C14.6535 17.0084 14.6838 17.175 14.7444 17.3416C14.805 17.493 14.911 17.6596 15.0322 17.8111C15.1685 17.9625 15.3199 18.0988 15.5017 18.22C15.6834 18.326 15.9257 18.4472 16.2438 18.5835C16.5467 18.7047 16.7588 18.8107 16.8951 18.9167C17.0162 19.0076 17.1374 19.1136 17.2131 19.2499C17.2889 19.3711 17.3343 19.5074 17.3343 19.6285C17.3343 19.8406 17.2586 20.0072 17.1071 20.1586C16.9708 20.3101 16.7739 20.3858 16.5316 20.3858Z" fill="black"/>
<path d="M23.6201 18.0233L24.4683 21.2645H25.4982L23.8322 14.9185L22.0753 19.1289L20.3032 14.9185L18.6372 21.2645H19.652L20.5153 17.993L22.0753 21.7037L23.6201 18.0233Z" fill="black"/>
<path d="M17.0314 26.717L15.3805 22.9912H14.2749L17.0163 29.1858L19.803 22.9912H18.6974L17.0314 26.717Z" fill="black"/>
<path d="M21.9994 22.9761H20.5151V28.8071H22.0146C23.0747 28.8071 23.8926 28.5042 24.453 27.9287C25.0134 27.338 25.3012 26.6565 25.3012 25.8992C25.3012 25.1419 25.0285 24.4603 24.4833 23.8697C23.938 23.279 23.105 22.9761 21.9994 22.9761ZM21.545 23.9908H21.7874C22.3326 23.9908 22.7718 24.0514 23.0899 24.1574C23.3928 24.2635 23.6654 24.4906 23.8926 24.8087C24.1198 25.1268 24.2258 25.4902 24.2258 25.884C24.2258 26.2021 24.1501 26.4899 24.0138 26.7625C23.8775 27.0351 23.6806 27.232 23.4534 27.3986C23.2111 27.5652 22.9536 27.6712 22.6961 27.7167C22.4386 27.7621 22.0448 27.7924 21.545 27.7924V23.9908Z" fill="black"/>
</svg>
